<svg width="62" height="62" xmlns="http://www.w3.org/2000/svg" xmlns:xlink="http://www.w3.org/1999/xlink" xml:space="preserve" overflow="hidden">
    <g transform="translate(-304 -481)">
        <path d="M352.8 514.6 346 514.6 346 515.9 352.5 515.9 352.5 526.2 346 526.2 346 527.5 352.8 527.5 356.7 531.4 360.8 531.4 360.8 510.7 356.7 510.7 352.8 514.6ZM359.5 512 359.5 530.1 357.2 530.1 353.7 526.6 353.7 515.5 357.2 512 359.5 512Z" stroke="#FFFFFF" stroke-width="2" fill="#FFFFFF"/>
        <path d="M315 512.6 315 513.3 312.7 513.3 311.4 512 307.9 512 307.9 519.1 311.4 519.1 312.7 517.8 315 517.8 315 529.4C315 530.8 316.2 532 317.6 532L343.4 532C344.8 532 346 530.8 346 529.4L346 512.6C346 511.2 344.9 510.1 343.5 510 347.8 507.4 349.2 501.9 346.6 497.6 344 493.3 338.5 491.9 334.2 494.5 329.9 497.1 328.5 502.6 331.1 506.9 331.9 508.2 332.9 509.3 334.2 510L325.4 510C329.7 507.4 331.1 501.9 328.5 497.6 325.9 493.3 320.4 491.9 316.1 494.5 311.8 497.1 310.4 502.6 313 506.9 313.8 508.3 315 509.4 316.5 510.2 315.6 510.7 315 511.6 315 512.6ZM315 516.5 312.1 516.5 310.8 517.8 309.1 517.8 309.1 513.3 310.8 513.3 312.1 514.6 315 514.6 315 516.5ZM331.1 502.3C331.1 498 334.6 494.5 338.9 494.5 343.2 494.5 346.7 498 346.7 502.3 346.7 506.6 343.2 510.1 338.9 510.1 334.6 510.1 331.1 506.6 331.1 502.3ZM313 502.3C313 498 316.5 494.5 320.8 494.5 325.1 494.5 328.6 498 328.6 502.3 328.6 506.6 325.1 510.1 320.8 510.1 316.5 510.1 313 506.6 313 502.3ZM316.3 512.6C316.3 511.9 316.9 511.3 317.6 511.3L343.4 511.3C344.1 511.3 344.7 511.9 344.7 512.6L344.7 529.4C344.7 530.1 344.1 530.7 343.4 530.7L317.6 530.7C316.9 530.7 316.3 530.1 316.3 529.4L316.3 512.6Z" stroke="#FFFFFF" stroke-width="2" fill="#FFFFFF"/>
    </g>
</svg>