<svg width="53" height="50" viewBox="0 0 53 50" fill="none" xmlns="http://www.w3.org/2000/svg">
<g clip-path="url(#clip0_120_118)">
<path d="M10.2101 25.0052V25.907H7.22068L5.53102 24.2322H0.981934V33.3797H5.53102L7.22068 31.7048H10.2101V46.6502C10.2101 48.454 11.7698 50 13.5894 50H47.1227C48.9423 50 50.502 48.454 50.502 46.6502V25.0052C50.502 23.2014 49.0723 21.7842 47.2526 21.6554C52.8415 18.3055 54.6611 11.2194 51.2818 5.67927C47.9025 0.139181 40.7539 -1.66454 35.1651 1.68528C29.5762 5.0351 27.7565 12.1213 31.1359 17.6614C32.1757 19.3363 33.4754 20.7535 35.1651 21.6554H23.7274C29.3162 18.3055 31.1359 11.2194 27.7566 5.67927C24.3772 0.139181 17.2287 -1.66454 11.6398 1.68528C6.05091 5.0351 4.23128 12.1213 7.6106 17.6614C8.65039 19.4651 10.2101 20.8823 12.1597 21.9131C10.9899 22.5573 10.2101 23.7168 10.2101 25.0052ZM10.2101 30.0299H6.44083L4.75117 31.7048H2.54162V25.907H4.75117L6.44083 27.5819H10.2101V30.0299ZM31.1359 11.7347C31.1359 6.19464 35.685 1.68528 41.2738 1.68528C46.8627 1.68528 51.4118 6.19464 51.4118 11.7347C51.4118 17.2748 46.8627 21.7842 41.2738 21.7842C35.685 21.7842 31.1359 17.2748 31.1359 11.7347ZM7.6106 11.7347C7.6106 6.19464 12.1597 1.68528 17.7486 1.68528C23.3374 1.68528 27.8865 6.19464 27.8865 11.7347C27.8865 17.2748 23.3374 21.7842 17.7486 21.7842C12.1597 21.7842 7.6106 17.2748 7.6106 11.7347ZM11.8997 25.0052C11.8997 24.1033 12.6796 23.3303 13.5894 23.3303H47.1227C48.0325 23.3303 48.8123 24.1033 48.8123 25.0052V46.6502C48.8123 47.5521 48.0325 48.3251 47.1227 48.3251H13.5894C12.6796 48.3251 11.8997 47.5521 11.8997 46.6502V25.0052Z" fill="white" stroke="white" stroke-width="1.2917"/>
</g>
<defs>
<clipPath id="clip0_120_118">
<rect width="52" height="50" fill="white" transform="translate(0.981934)"/>
</clipPath>
</defs>
</svg>
